<svg width="50" height="50" viewBox="0 0 50 50" fill="none" xmlns="http://www.w3.org/2000/svg">
<path d="M29.6875 8.33337H20.3125C13.6834 8.33337 10.3688 8.33337 8.30941 10.4255C6.25 12.5176 6.25 15.8847 6.25 22.6191V27.381C6.25 34.1153 6.25 37.4825 8.30941 39.5746C10.3688 41.6667 13.6834 41.6667 20.3125 41.6667H29.6875C36.3166 41.6667 39.6312 41.6667 41.6906 39.5746C43.75 37.4825 43.75 34.1153 43.75 27.381V22.6191C43.75 15.8847 43.75 12.5176 41.6906 10.4255C39.6312 8.33337 36.3166 8.33337 29.6875 8.33337Z" stroke="#ED1B24" stroke-width="3"/>
<path d="M14.5833 16.6666H20.8333" stroke="#ED1B24" stroke-width="3" stroke-linecap="round"/>
<path d="M31.25 31.3334V27C31.25 26.0572 31.25 25.5858 31.5429 25.2929C31.8358 25 32.3072 25 33.25 25H41.75C42.6928 25 43.1642 25 43.4571 25.2929C43.75 25.5858 43.75 26.0572 43.75 27V31.3334C43.75 32.2762 43.75 32.7476 43.4571 33.0405C43.1642 33.3334 42.6928 33.3334 41.75 33.3334H33.25C32.3072 33.3334 31.8358 33.3334 31.5429 33.0405C31.25 32.7476 31.25 32.2762 31.25 31.3334Z" stroke="#ED1B24" stroke-width="3"/>
</svg>
