<svg width="41" height="40" viewBox="0 0 41 40" fill="none" xmlns="http://www.w3.org/2000/svg">
<path d="M28.6819 25.6578C28.6773 26.777 28.5443 27.8921 28.2855 28.9811C28.2596 29.0886 28.2381 29.2004 28.2079 29.3122C27.5717 31.712 26.321 33.9055 24.5786 35.6774C22.8363 37.4493 20.6622 38.7386 18.2697 39.4189C15.8772 40.0992 13.3485 40.1471 10.9318 39.5578C8.5152 38.9685 6.29365 37.7623 4.48523 36.0576C4.38613 35.9674 4.28273 35.8685 4.18363 35.7696C4.08453 35.6707 3.98544 35.5718 3.89496 35.4686C1.38891 32.8107 0.000896334 29.2943 0.0172944 25.6449C0.00558742 25.2649 0.015657 24.8845 0.047454 24.5056C0.612931 25.2889 1.23962 26.0264 1.92166 26.7111C4.10115 28.9045 6.8249 30.4816 9.81486 31.2812C10.7314 31.5258 11.6667 31.694 12.6111 31.7842L13.2014 31.8272C13.5676 31.8272 13.9295 31.8616 14.2914 31.8616C15.2892 31.8611 16.2852 31.7762 17.2686 31.6079C18.2578 31.4364 19.2306 31.1819 20.1768 30.847L20.5345 30.7223C22.8549 29.8371 24.9629 28.4749 26.7215 26.724C27.4025 26.035 28.0278 25.2932 28.5914 24.5056C28.5914 24.6647 28.6172 24.8281 28.6258 24.9957C28.6345 25.1634 28.6819 25.4385 28.6819 25.6578Z" fill="#ED1B24"/>
<path d="M40.3192 14.3078C40.3189 13.1883 40.1858 12.0727 39.9228 10.9845C39.8969 10.877 39.8754 10.7652 39.8452 10.6534C39.209 8.25359 37.9583 6.06009 36.2159 4.2882C34.4736 2.51632 32.2995 1.22695 29.907 0.546642C27.5145 -0.133662 24.9858 -0.181517 22.5691 0.407773C20.1525 0.997064 17.9309 2.20325 16.1225 3.90793C16.0234 3.99822 15.92 4.0971 15.8209 4.19598C15.7218 4.29487 15.6227 4.39375 15.5323 4.49693C13.0262 7.1549 11.6382 10.6713 11.6546 14.3207C11.6473 14.6995 11.6617 15.0784 11.6977 15.4557C12.2634 14.6712 12.8916 13.9337 13.5762 13.2502C15.7504 11.0596 18.4682 9.48405 21.4522 8.68437C22.3683 8.43543 23.3036 8.26287 24.2484 8.16847L24.8387 8.12547C25.2049 8.10398 25.5668 8.09108 25.9287 8.09108C27.935 8.09486 29.9257 8.44241 31.8141 9.1186L32.1761 9.24327C34.4947 10.1296 36.601 11.4917 38.3588 13.2416C39.0395 13.9278 39.6647 14.6667 40.2287 15.4514C40.2287 15.2923 40.2545 15.1289 40.2631 14.9612C40.2718 14.7936 40.3192 14.527 40.3192 14.3078Z" fill="#ED1B24"/>
<path d="M13.2703 26.7324C13.9559 27.4153 14.6966 28.0408 15.4848 28.6026C15.11 28.6327 14.7308 28.6499 14.3517 28.6499C13.1112 28.6483 11.8761 28.4879 10.6765 28.1727C7.61071 27.3683 4.89911 25.5714 2.96692 23.0638C1.03473 20.5561 -0.00878229 17.4795 2.15862e-05 14.3163C-0.0163765 10.6669 1.37164 7.15052 3.87769 4.49255C3.96817 4.39367 4.07157 4.29479 4.17067 4.19591L4.46795 3.90356C7.13182 1.38816 10.6626 -0.00941837 14.3301 -0.000138769C14.7157 -0.00880372 15.1013 0.006992 15.4848 0.0471528C15.4643 0.0549188 15.4464 0.0683341 15.4331 0.0858457C14.6688 0.639952 13.9485 1.25227 13.2789 1.91732C11.0765 4.10151 9.49461 6.8298 8.69461 9.82359C7.90521 12.7949 7.9124 15.9211 8.71548 18.8888C9.51856 21.8565 11.0893 24.5614 13.2703 26.7324Z" fill="#ED1B24"/>
<path d="M40.0434 25.6664C40.056 29.3254 38.6548 32.8484 36.1312 35.5031L35.8383 35.804L35.541 36.0921C32.8791 38.6008 29.3532 39.9936 25.6917 39.9829C25.3126 39.9829 24.9291 39.9614 24.5499 39.9356C25.3372 39.3724 26.0778 38.747 26.7645 38.0654C28.9538 35.884 30.5264 33.1638 31.3229 30.1806C31.4694 29.6303 31.5858 29.0714 31.6762 28.5125C31.7409 28.1428 31.7839 27.7645 31.8227 27.3904C31.8744 26.8272 31.9046 26.2597 31.9046 25.6965C31.9087 23.565 31.5217 21.4508 30.7628 19.4584C29.8773 17.1444 28.5135 15.0424 26.7602 13.289C26.0702 12.5993 25.3253 11.9667 24.5327 11.3973L25.0239 11.3629H25.6702C25.9761 11.3629 26.282 11.3629 26.5965 11.393C27.5218 11.4462 28.4397 11.5902 29.3367 11.8229C32.3998 12.6323 35.1095 14.4278 37.0454 16.9309C38.9813 19.434 40.0351 22.5047 40.0434 25.6664Z" fill="#ED1B24"/>
</svg>
