<svg width="1400" height="483" viewBox="0 0 1400 483" fill="none" xmlns="http://www.w3.org/2000/svg">
<g opacity="0.3" clip-path="url(#clip0_64188_314)">
<rect width="1400" height="483" fill="white"/>
<path d="M802.675 301.5C802.675 357.93 756.93 403.675 700.5 403.675C644.07 403.675 598.325 357.93 598.325 301.5C598.325 245.07 644.07 199.325 700.5 199.325C756.93 199.325 802.675 245.07 802.675 301.5Z" stroke="#EDE6DD" stroke-width="2"/>
<path d="M875.187 301.5C875.187 397.977 796.977 476.187 700.5 476.187C604.023 476.187 525.813 397.977 525.813 301.5C525.813 205.023 604.023 126.813 700.5 126.813C796.977 126.813 875.187 205.023 875.187 301.5Z" stroke="#EDE6DD" stroke-width="2"/>
<path d="M942.425 301.5C942.425 435.111 834.111 543.425 700.5 543.425C566.889 543.425 458.575 435.111 458.575 301.5C458.575 167.889 566.889 59.5755 700.5 59.5755C834.111 59.5755 942.425 167.889 942.425 301.5Z" stroke="#EDE6DD" stroke-width="2"/>
<path d="M1020.21 301.5C1020.21 478.071 877.071 621.21 700.5 621.21C523.929 621.21 380.79 478.071 380.79 301.5C380.79 124.929 523.929 -18.2095 700.5 -18.2095C877.071 -18.2095 1020.21 124.929 1020.21 301.5Z" stroke="#EDE6DD" stroke-width="2"/>
<path d="M1097.99 301.5C1097.99 521.03 920.03 698.995 700.5 698.995C480.97 698.995 303.005 521.03 303.005 301.5C303.005 81.9698 480.97 -95.9945 700.5 -95.9945C920.03 -95.9945 1097.99 81.9698 1097.99 301.5Z" stroke="#EDE6DD" stroke-width="2"/>
<path d="M1175.78 301.5C1175.78 563.99 962.99 776.78 700.5 776.78C438.01 776.78 225.22 563.99 225.22 301.5C225.22 39.0104 438.01 -173.78 700.5 -173.78C962.99 -173.78 1175.78 39.0104 1175.78 301.5Z" stroke="#EDE6DD" stroke-width="2"/>
<path d="M1254.88 301.5C1254.88 607.677 1006.68 855.883 700.5 855.883C394.323 855.883 146.117 607.677 146.117 301.5C146.117 -4.6772 394.323 -252.883 700.5 -252.883C1006.68 -252.883 1254.88 -4.6772 1254.88 301.5Z" stroke="#EDE6DD" stroke-width="2"/>
<path d="M1339.26 301.5C1339.26 654.277 1053.28 940.26 700.5 940.26C347.723 940.26 61.7402 654.277 61.7402 301.5C61.7402 -51.2773 347.723 -337.26 700.5 -337.26C1053.28 -337.26 1339.26 -51.2773 1339.26 301.5Z" stroke="#EDE6DD" stroke-width="2"/>
<path d="M1421 301.5C1421 699.421 1098.42 1022 700.5 1022C302.579 1022 -20 699.421 -20 301.5C-20 -96.4211 302.579 -419 700.5 -419C1098.42 -419 1421 -96.4211 1421 301.5Z" stroke="#EDE6DD" stroke-width="2"/>
</g>
<defs>
<clipPath id="clip0_64188_314">
<rect width="1400" height="483" fill="white"/>
</clipPath>
</defs>
</svg>
